<mxfile modified="2022-03-13T01:20:03.561Z" host="app.diagrams.net" agent="5.0 (Windows NT 10.0; Win64; x64) AppleWebKit/537.36 (KHTML, like Gecko) Chrome/99.0.4844.51 Safari/537.36" etag="Css1fDZjHWLtyCqchQSL" version="17.1.2" type="github">
  <diagram id="Ht1M8jgEwFfnCIfOTk4-" name="Page-1">
    <mxGraphModel dx="978" dy="598" grid="1" gridSize="10" guides="1" tooltips="1" connect="1" arrows="1" fold="1" page="1" pageScale="1" pageWidth="1169" pageHeight="827" math="0" shadow="0">
      <root>
        <mxCell id="0" />
        <mxCell id="1" parent="0" />
        <mxCell id="QI20--4eJx9YHW8ivSqg-21" value="" style="shape=ext;double=1;rounded=1;whiteSpace=wrap;html=1;" vertex="1" parent="1">
          <mxGeometry x="70" y="50" width="920" height="480" as="geometry" />
        </mxCell>
        <mxCell id="UEzPUAAOIrF-is8g5C7q-133" style="edgeStyle=orthogonalEdgeStyle;rounded=0;orthogonalLoop=1;jettySize=auto;html=1;startArrow=open;startFill=0;endArrow=open;endFill=0;strokeWidth=2;strokeColor=#808080;" parent="1" source="UEzPUAAOIrF-is8g5C7q-116" target="QI20--4eJx9YHW8ivSqg-2" edge="1">
          <mxGeometry relative="1" as="geometry">
            <Array as="points">
              <mxPoint x="740" y="327" />
              <mxPoint x="740" y="362" />
              <mxPoint x="850" y="362" />
            </Array>
            <mxPoint x="637.999112850026" y="327.5" as="sourcePoint" />
            <mxPoint x="809.5000000000002" y="361.5" as="targetPoint" />
          </mxGeometry>
        </mxCell>
        <mxCell id="QI20--4eJx9YHW8ivSqg-20" value="User Requests" style="edgeLabel;html=1;align=center;verticalAlign=middle;resizable=0;points=[];" vertex="1" connectable="0" parent="UEzPUAAOIrF-is8g5C7q-133">
          <mxGeometry x="0.0822" relative="1" as="geometry">
            <mxPoint x="-29" y="-12" as="offset" />
          </mxGeometry>
        </mxCell>
        <mxCell id="UEzPUAAOIrF-is8g5C7q-116" value="Amazon S3" style="outlineConnect=0;fontColor=#232F3E;gradientColor=#60A337;gradientDirection=north;fillColor=#277116;strokeColor=#ffffff;dashed=0;verticalLabelPosition=bottom;verticalAlign=top;align=center;html=1;fontSize=12;fontStyle=0;aspect=fixed;shape=mxgraph.aws4.resourceIcon;resIcon=mxgraph.aws4.s3;labelBackgroundColor=#ffffff;" parent="1" vertex="1">
          <mxGeometry x="560.0000000000002" y="292" width="78" height="78" as="geometry" />
        </mxCell>
        <mxCell id="QI20--4eJx9YHW8ivSqg-1" value="" style="sketch=0;points=[[0,0,0],[0.25,0,0],[0.5,0,0],[0.75,0,0],[1,0,0],[0,1,0],[0.25,1,0],[0.5,1,0],[0.75,1,0],[1,1,0],[0,0.25,0],[0,0.5,0],[0,0.75,0],[1,0.25,0],[1,0.5,0],[1,0.75,0]];outlineConnect=0;fontColor=#232F3E;gradientColor=#4D72F3;gradientDirection=north;fillColor=#3334B9;strokeColor=#ffffff;dashed=0;verticalLabelPosition=bottom;verticalAlign=top;align=center;html=1;fontSize=12;fontStyle=0;aspect=fixed;shape=mxgraph.aws4.resourceIcon;resIcon=mxgraph.aws4.rds;" vertex="1" parent="1">
          <mxGeometry x="120" y="120" width="78" height="78" as="geometry" />
        </mxCell>
        <mxCell id="QI20--4eJx9YHW8ivSqg-2" value="Users" style="sketch=0;outlineConnect=0;fontColor=#232F3E;gradientColor=none;strokeColor=#232F3E;fillColor=#ffffff;dashed=0;verticalLabelPosition=bottom;verticalAlign=top;align=center;html=1;fontSize=12;fontStyle=0;aspect=fixed;shape=mxgraph.aws4.resourceIcon;resIcon=mxgraph.aws4.users;" vertex="1" parent="1">
          <mxGeometry x="840" y="331.5" width="60" height="60" as="geometry" />
        </mxCell>
        <mxCell id="QI20--4eJx9YHW8ivSqg-3" value="" style="outlineConnect=0;dashed=0;verticalLabelPosition=bottom;verticalAlign=top;align=center;html=1;shape=mxgraph.aws3.elastic_beanstalk;fillColor=#F58534;gradientColor=none;" vertex="1" parent="1">
          <mxGeometry x="370" y="284.5" width="67.5" height="93" as="geometry" />
        </mxCell>
        <mxCell id="QI20--4eJx9YHW8ivSqg-4" value="Elastic Bean Stalk" style="text;html=1;align=center;verticalAlign=middle;resizable=0;points=[];autosize=1;strokeColor=none;fillColor=none;" vertex="1" parent="1">
          <mxGeometry x="350" y="377.5" width="110" height="20" as="geometry" />
        </mxCell>
        <mxCell id="QI20--4eJx9YHW8ivSqg-5" value="Amazon RDS database" style="text;html=1;align=center;verticalAlign=middle;resizable=0;points=[];autosize=1;strokeColor=none;fillColor=none;" vertex="1" parent="1">
          <mxGeometry x="99" y="220" width="140" height="20" as="geometry" />
        </mxCell>
        <mxCell id="QI20--4eJx9YHW8ivSqg-6" value="Data Request from Amazon&lt;br&gt;RDS" style="text;html=1;align=center;verticalAlign=middle;resizable=0;points=[];autosize=1;strokeColor=none;fillColor=none;" vertex="1" parent="1">
          <mxGeometry x="160" y="322" width="160" height="30" as="geometry" />
        </mxCell>
        <mxCell id="QI20--4eJx9YHW8ivSqg-14" value="" style="edgeStyle=elbowEdgeStyle;elbow=horizontal;endArrow=classic;html=1;rounded=0;exitX=0.022;exitY=0.517;exitDx=0;exitDy=0;exitPerimeter=0;" edge="1" parent="1" source="QI20--4eJx9YHW8ivSqg-6" target="QI20--4eJx9YHW8ivSqg-1">
          <mxGeometry width="50" height="50" relative="1" as="geometry">
            <mxPoint x="280" y="340" as="sourcePoint" />
            <mxPoint x="330" y="290" as="targetPoint" />
          </mxGeometry>
        </mxCell>
        <mxCell id="QI20--4eJx9YHW8ivSqg-15" value="" style="edgeStyle=elbowEdgeStyle;elbow=horizontal;endArrow=classic;html=1;rounded=0;exitX=1.012;exitY=0.698;exitDx=0;exitDy=0;exitPerimeter=0;" edge="1" parent="1" source="QI20--4eJx9YHW8ivSqg-6" target="QI20--4eJx9YHW8ivSqg-3">
          <mxGeometry width="50" height="50" relative="1" as="geometry">
            <mxPoint x="280" y="340" as="sourcePoint" />
            <mxPoint x="330" y="290" as="targetPoint" />
            <Array as="points">
              <mxPoint x="380" y="360" />
            </Array>
          </mxGeometry>
        </mxCell>
        <mxCell id="QI20--4eJx9YHW8ivSqg-16" value="" style="edgeStyle=elbowEdgeStyle;elbow=horizontal;endArrow=classic;html=1;rounded=0;exitX=1.033;exitY=0.627;exitDx=0;exitDy=0;exitPerimeter=0;" edge="1" parent="1" source="QI20--4eJx9YHW8ivSqg-17" target="UEzPUAAOIrF-is8g5C7q-116">
          <mxGeometry width="50" height="50" relative="1" as="geometry">
            <mxPoint x="520" y="390" as="sourcePoint" />
            <mxPoint x="530" y="340" as="targetPoint" />
          </mxGeometry>
        </mxCell>
        <mxCell id="QI20--4eJx9YHW8ivSqg-17" value="API requests&lt;br&gt;&amp;nbsp;from Server" style="text;html=1;align=center;verticalAlign=middle;resizable=0;points=[];autosize=1;strokeColor=none;fillColor=none;" vertex="1" parent="1">
          <mxGeometry x="460" y="292" width="80" height="30" as="geometry" />
        </mxCell>
        <mxCell id="QI20--4eJx9YHW8ivSqg-19" value="" style="edgeStyle=elbowEdgeStyle;elbow=horizontal;endArrow=classic;html=1;rounded=0;" edge="1" parent="1" source="QI20--4eJx9YHW8ivSqg-17" target="QI20--4eJx9YHW8ivSqg-3">
          <mxGeometry width="50" height="50" relative="1" as="geometry">
            <mxPoint x="480" y="380" as="sourcePoint" />
            <mxPoint x="530" y="330" as="targetPoint" />
          </mxGeometry>
        </mxCell>
        <mxCell id="QI20--4eJx9YHW8ivSqg-22" value="&lt;h2&gt;&lt;b&gt;&lt;font style=&quot;font-size: 18px&quot;&gt;AWS Cloud&lt;/font&gt;&lt;/b&gt;&lt;/h2&gt;" style="text;html=1;align=center;verticalAlign=middle;resizable=0;points=[];autosize=1;strokeColor=none;fillColor=none;" vertex="1" parent="1">
          <mxGeometry x="435" y="45" width="110" height="50" as="geometry" />
        </mxCell>
      </root>
    </mxGraphModel>
  </diagram>
</mxfile>
